<svg width="1000" height="1000" viewBox="0 0 1000 1000" fill="none" xmlns="http://www.w3.org/2000/svg">
<g clip-path="url(#clip0_102_15014)">
<path d="M490.667 809.167C488.667 809.667 486.667 809.833 484.667 809.833C484.333 809.833 484 809.833 483.667 809.833C469.667 809.333 456.667 798.333 448.667 783.667C413.167 718.333 403.5 678 390.667 633.833C387.5 622.833 388.333 611.667 393 603.667C396.667 597.5 402.5 593 410.5 592.167C411.5 592 412.333 592 413.333 592C427.5 592 442.333 603.333 448.167 618L509 767C516.667 785.833 508.333 805.167 490.667 809.167Z" fill="#FFB96C"/>
<path d="M483.667 809.833C469.667 809.333 456.667 798.333 448.667 783.667C413.167 718.333 403.5 678 390.667 633.833C387.5 622.833 388.333 611.667 393 603.667C408.833 642 460.833 767.833 476.833 797.166C479.333 801.833 481.667 806 483.667 809.833Z" fill="#FCAF63"/>
<path d="M567 786.667C565.5 790.5 563.5 793.5 561.5 795C549.5 804.5 537.667 806.667 517.833 811C498 815.333 477.5 814.333 468 805.333C464.833 802.333 462.5 799 461.167 795.5C457 785.5 460.667 775 472.5 770.5C479.5 767.833 543.167 752.833 553.667 754.833C571.833 758.333 571.5 775.5 567 786.667Z" fill="#FFB96C"/>
<path d="M567 786.667C565.5 790.5 563.5 793.5 561.5 795C549.5 804.5 537.667 806.667 517.833 811C498 815.333 477.5 814.333 468 805.333C464.833 802.333 462.5 799 461.167 795.5C466.5 797 477.167 799 495.333 797C510.667 795.333 542.167 790.5 567 786.667Z" fill="#FCAF63"/>
<path d="M550.333 756C530.5 762.667 532.667 775.833 535.667 788.667C538.667 801.5 563.333 834.5 570.833 836.167C578.333 837.833 578.833 834.833 576.833 828.667C574.833 822.5 560.667 801 560.667 801C560.667 801 576.333 822.333 582.833 828.667C589.333 835 594.833 834.5 594.667 827.5C594.333 820.5 578.833 797 578.833 797C578.833 797 592.5 815 598.167 821.167C603.833 827.333 611.333 826.333 608.667 818C606.167 809.667 594.833 791.5 594.833 791.5C594.833 791.5 605.833 809.833 613.167 811.667C620.5 813.5 616 802.5 608.167 788.5C600.5 774.167 575 747.667 550.333 756Z" fill="#FEA691"/>
<path d="M533.667 774.333C533.667 774.333 529.5 790.666 532.167 805C534.833 819.333 539.333 822.166 542.333 822.833C545.333 823.5 546.333 819.666 544.833 813.5C543.333 807.333 547.333 795.166 547.333 795.166C547.333 795.166 543 770.666 533.667 774.333Z" fill="#FEA691"/>
<path d="M455.167 826.667H287C287 826.667 263.833 664.667 278.5 624.833C282.667 613.5 288.167 604.333 294.5 596.667C310.333 577.333 330.667 568.5 344.5 565C362.667 560.333 378.5 560.167 392.167 563.5C428.5 572.167 448.667 605.333 455.167 641.5C464.167 691.333 455.167 826.667 455.167 826.667Z" fill="#FEC272"/>
<path d="M346 597.5C324 603.167 303.833 602.5 294.333 596.667C310.167 577.333 330.5 568.5 344.333 565C362.5 560.333 378.333 560.167 392 563.5C395 574.833 374.333 590.167 346 597.5Z" fill="#F9B35F"/>
<path d="M331.667 635.5C331.667 638.167 331.5 640.833 331 643.333C324.167 687.667 284.833 794.333 284.833 794.333C282 802.833 276 809.167 268.667 812.667C261.333 816 252.833 816.667 244.667 813.5C232 808.5 226 796.5 226 783.333C226 780.5 226.333 777.667 226.833 774.833C238.333 712.667 258.833 661.167 275.667 624.833C283 608.833 301 598.833 316.833 606.833C321.667 609.167 325 613 327.5 617.333C330.5 622.667 331.667 629 331.667 635.5Z" fill="#FFCD92"/>
<path d="M331.667 635.5C331.667 638.167 331.5 640.833 331 643.333C324.167 687.667 284.833 794.333 284.833 794.333C282 802.833 276 809.167 268.667 812.667L327.333 617.167C330.5 622.667 331.667 629 331.667 635.5Z" fill="#FCB765"/>
<path d="M384.167 812.333C380.5 821.333 368.5 821.666 368.5 821.666C368.5 821.666 334.833 823.666 305.667 823.666C276.5 823.666 247.833 823.666 236.167 810.5C233.833 807.833 232 804.833 231 801.666C226.667 789.5 232.167 775 249.5 767.666C262 762.333 276.333 764.166 292 765.666C307.667 767.166 337.833 774.166 355.333 778.833C373 783.333 383.5 787.833 385 804.5C385.5 807.666 385 810.166 384.167 812.333Z" fill="#FFCD92"/>
<path d="M384.167 812.333C380.5 821.333 368.5 821.667 368.5 821.667C368.5 821.667 334.833 823.667 305.667 823.667C276.5 823.667 247.833 823.666 236.167 810.5C233.833 807.833 232 804.833 231 801.667C244 805.667 261.5 810.333 275.5 811.5C315 814.833 367.333 813.166 384.167 812.333Z" fill="#FCB765"/>
<path d="M419.333 785.5C419.333 788.166 419 791 418.333 794C414.833 808.333 396.333 819.333 368.167 820.833C355.667 821.5 347.167 821.5 341.5 820.166C334.167 818.333 331.333 814 330.667 805C329.833 793.5 338.5 783 345 778.5C364.5 765.333 382.667 764.333 398.5 765.833C412.667 767.333 419.167 775.166 419.333 785.5Z" fill="#FEA691"/>
<path d="M419.333 785.499C419.333 788.166 419 790.999 418.333 793.999C414.833 808.333 396.333 819.333 368.167 820.833C355.667 821.499 347.167 821.499 341.5 820.166C340.833 818.499 340.333 816.499 340.167 813.999C339.333 804.166 347.5 794.999 353.833 791.166C372.333 779.833 389.667 778.833 404.667 780.333C411.333 780.833 416.167 782.666 419.333 785.499Z" fill="#FC8172"/>
<path d="M441.167 814.5C441.167 816.333 440.833 818 440.333 819.833H348.667C348.167 818.166 347.833 816.333 347.833 814.5C347.833 798.5 368.667 785.5 394.5 785.5C420.333 785.5 441.167 798.5 441.167 814.5Z" fill="#C7DCF9"/>
<path opacity="0.55" d="M439.167 817C439.167 818 439 818.833 438.5 819.833H354.667C354.167 818.833 354 818 354 817C354 808.5 373 801.5 396.5 801.5C420.167 801.5 439.167 808.5 439.167 817Z" fill="#C7DCF9"/>
<path d="M421 761C427 761.667 431.167 765.5 433.5 773.5C435.833 781.5 436.333 793.333 433.833 797.5C431.333 801.667 426.667 803.5 421.5 799.333C416.333 795.167 413.5 783.5 411.833 777.667C409.833 770 407.5 759.667 421 761Z" fill="#FEA691"/>
<path d="M398.667 757.166C405.167 757.833 407.833 763.333 410.333 771.666C412.833 780 413.333 792.666 410.667 797.166C408 801.5 403 803.5 397.5 799.166C392 794.833 388.833 782.333 387.167 776.166C385 768 384 755.833 398.667 757.166Z" fill="#FEA691"/>
<path d="M405.167 801.333C402.833 801.833 400.167 801.333 397.5 799C392 794.666 389 782.166 387.167 776C385.333 769.333 384.333 759.833 392.167 757.5C390.667 762 391.5 768.166 392.667 772.833C394.333 780 397.5 794.5 403 799.5C403.833 800.333 404.5 800.999 405.167 801.333Z" fill="#FF8D76"/>
<path d="M374.333 761C380.833 761.667 385.167 765.833 387.667 774.166C390.167 782.5 390.667 795.166 388 799.666C385.333 804 380.333 806 374.833 801.666C369.333 797.333 366.167 784.833 364.5 778.667C362.333 770.5 359.833 759.5 374.333 761Z" fill="#FEA691"/>
<path d="M380.833 804C379 804 377 803.166 375 801.5C369.5 797.166 366.5 784.666 364.667 778.5C363 772.166 361 764.166 367.167 761.5C366.667 765.666 367.833 771 369 775.333C371 782.833 374.5 798.166 380.667 803.666C380.667 804 380.667 804 380.833 804Z" fill="#FF8D76"/>
<path d="M352.5 765.666C358.167 764 362.5 770.166 364.667 777.833C366.833 785.5 367.5 797.166 365 801.166C362.667 805.166 358 807 353 803C348 799 346.667 791.333 345.167 785.666C343.167 778.333 341.5 769 352.5 765.666Z" fill="#FEA691"/>
<path d="M358.667 805.333C356.833 805.333 355 804.666 353 803C348 799 346.667 791.333 345.167 785.666C343.333 779.333 342 771.5 348.667 767.333C348.167 771.833 349 776.666 349.833 781C351.333 788.666 352.5 799.166 358.167 804.833C358.333 805 358.5 805.166 358.667 805.333Z" fill="#FF8D76"/>
<path d="M428 801.5C426 801.666 423.833 801 421.667 799.166C416.5 795 413.667 783.333 412 777.5C410.333 771.333 408.333 763.333 415 761.333C415 765 415.833 769.166 416.667 772.833C418.333 780.333 421.5 795.333 426.833 800.666C427.333 801 427.667 801.333 428 801.5Z" fill="#FF8D76"/>
<path d="M348 391.667C348 391.667 363.5 385.334 374 406.334C384.5 427.5 373.167 441 373.167 441C373.167 441 362.833 410.5 348 391.667Z" fill="#FF8D76"/>
<path d="M358.667 584.834C344 591.667 333.833 582.167 333.833 582.167L324.667 562.334L308.167 526.667C333 521.334 354.667 517.167 354.667 517.167L358.5 533L365.667 562.5C365.333 562.667 373.333 578.167 358.667 584.834Z" fill="#FEA691"/>
<path d="M358.333 533.167C356.167 536.334 353.833 539.667 351 542.834C343.833 551.334 333.5 557.834 324.5 562.334L308 526.667C332.833 521.334 354.5 517.167 354.5 517.167L358.333 533.167Z" fill="#FF8D76"/>
<path d="M344.733 530.485C381.858 507.919 389.591 452.835 362.005 407.452C334.419 362.068 281.96 343.571 244.835 366.137C207.71 388.703 199.977 443.787 227.563 489.171C255.149 534.554 307.608 553.052 344.733 530.485Z" fill="#FEA691"/>
<path d="M362.333 514.667C357.5 520.833 351.5 526.167 344.667 530.5C307.5 553 255.167 534.5 227.5 489.167C200.167 444.333 207.5 389.833 243.667 366.833C222.667 393.833 221.667 437.167 244.167 474C271.667 519.333 324.167 537.833 361.333 515.333C361.667 515.167 362 515 362.333 514.667Z" fill="#FF8D76"/>
<path d="M262 515.833C262 515.833 233.667 493.5 226.5 453.5C219.333 413.5 227.333 397.333 260.167 378C293 358.833 317.5 365.667 317.5 365.667C317.5 365.667 294.167 348.167 256 354.667C217.833 361 179 397.333 187 452C195.333 510.333 230 527.5 262 515.833Z" fill="#283575"/>
<path d="M296.333 411.334C291.833 414.5 298.167 431.334 311.833 443.834C325.5 456.334 338.667 449.834 339 437.5C339.333 424.834 311.833 400.334 296.333 411.334Z" fill="#F76F59"/>
<path d="M229.167 485.667C229.167 485.667 202.5 511.834 226.5 534.667C249.5 556.5 278.5 527.167 278.5 527.167C278.5 527.167 237.833 505.334 229.167 485.667Z" fill="#FF8D76"/>
<path d="M232.333 500.833C232.333 500.833 217.333 515.5 230.833 528.5C243.833 540.834 260.167 524.334 260.167 524.334C260.167 524.334 237.167 512 232.333 500.833Z" fill="#F76F59"/>
<path d="M314.167 363.5C314.167 363.5 317 313.167 288.333 292.667C256 269.667 237.833 302.833 248.5 330C253.167 342.167 258.167 349.5 262.167 353.833C265.833 357.833 270.833 360.167 276.167 360.5L314.167 363.5Z" fill="#283575"/>
<path d="M204.5 321C179 341.333 201 370.5 211.5 378.333C216 381.666 220.833 384.333 225 386.333C230.667 389 237.333 388.666 242.667 385.333L278.667 362.5C278.667 362.666 238.333 294.166 204.5 321Z" fill="#283575"/>
<path d="M265 287.167C257 288.167 265.833 303.5 277.5 305.5C289.167 307.5 285.5 284.667 265 287.167Z" fill="#3C4E8E"/>
<path d="M214.5 321.333C209.833 326.667 222 333.5 231.833 330.167C241.833 327 224.833 309.667 214.5 321.333Z" fill="#3C4E8E"/>
<path d="M362.833 475C362 476.667 360.833 478.167 359.167 479.5C353 484.333 348.333 491.333 345 498.667C342 505.167 334.333 512.833 327.167 507.333C326.333 506.667 325.5 506 324.833 505C317.333 495.5 320.167 471 331.833 460.167C340.833 451.833 352 454 357.667 458.667C363.167 462.833 365.5 469.5 362.833 475Z" fill="#F76F59"/>
<path d="M362.833 475C362 476.667 360.833 478.167 359.167 479.5C353 484.334 348.333 491.334 345 498.667C342 505.167 334.333 512.834 327.167 507.334C327.167 496.834 331 484.5 338.333 477.834C346.833 470.167 356.833 471.167 362.833 475Z" fill="#FF6EA9"/>
<path d="M259.667 446.167C254.333 446.167 250.167 444.5 249.833 444.333C247.667 443.5 246.667 441 247.5 438.833C248.333 436.667 250.833 435.667 253 436.5C253.167 436.5 262.333 440.167 267.333 434.667C273.833 427.833 267 419 266.833 418.667C265.333 416.833 265.667 414.167 267.5 412.667C269.333 411.167 272 411.5 273.5 413.333C277.5 418.5 282.667 430.667 273.5 440.333C269.333 444.833 264.167 446.167 259.667 446.167Z" fill="#1C3177"/>
<path d="M321.667 404.333C313.167 404.333 306 398 305.5 397.667C303.667 396.167 303.667 393.333 305.167 391.667C306.667 390 309.333 389.833 311.167 391.333C311.167 391.333 318.833 397.833 324.5 395.333C327 394.167 325.167 389 325 388.833C324.167 386.667 325.167 384.167 327.5 383.333C329.667 382.5 332.167 383.5 333 385.667C335.5 391.833 334.833 400 328 403C325.833 404 323.667 404.333 321.667 404.333Z" fill="#1C3177"/>
<path d="M237.333 436.167C237.167 436.167 237 436.167 236.833 436.167C234.5 435.833 232.833 433.833 233 431.5C233 431 234.167 421 241.167 410.833C248 400.667 255 397.167 255.333 397C257.5 396 260 396.833 261 399C262 401.167 261.167 403.667 259 404.667C259 404.667 253.667 407.5 248.167 415.5C242.5 423.833 241.5 432.167 241.5 432.333C241.333 434.5 239.5 436.167 237.333 436.167Z" fill="#1C3177"/>
<path d="M298.333 386.833C297.167 386.833 295.833 386.333 295 385.333C293.5 383.5 293.833 380.833 295.667 379.333C296.167 379 300 375.833 306.833 373.833C313.667 371.833 319.333 372 319.5 372C321.833 372 323.667 374 323.667 376.333C323.667 378.667 321.5 380.5 319.333 380.5C319.333 380.5 314.833 380.333 309.333 382C304 383.667 301 386 301 386C300.167 386.5 299.333 386.833 298.333 386.833Z" fill="#1C3177"/>
<path d="M843.167 843.833H163.833C157.167 843.833 151.833 838.5 151.833 831.834C151.833 825.167 157.167 819.833 163.833 819.833H843.167C849.833 819.833 855.167 825.167 855.167 831.834C855.167 838.334 849.833 843.833 843.167 843.833Z" fill="#99ADF9"/>
<path d="M842 843.833H261.833C255.167 843.833 249.833 838.5 249.833 831.834C249.833 825.167 255.167 819.833 261.833 819.833H842C848.667 819.833 854 825.167 854 831.834C854.167 838.334 848.667 843.833 842 843.833Z" fill="#789FEF"/>
<path d="M762.667 741.167H452.667C447.167 741.167 442.833 736.167 443.833 730.667L476.833 532.833C477.5 528.5 481.333 525.333 485.667 525.333H795.667C801.167 525.333 805.5 530.333 804.5 535.833L771.667 733.667C770.833 738 767.167 741.167 762.667 741.167Z" fill="#E1ECFF"/>
<path d="M769.333 741.167H463.333C457.833 741.167 453.5 736.167 454.5 730.667L487.5 532.833C488.167 528.5 492 525.333 496.333 525.333H802.333C807.833 525.333 812.167 530.333 811.167 535.833L778.167 733.667C777.5 738 773.667 741.167 769.333 741.167Z" fill="#C7DCF9"/>
<path d="M737 720H503.333C499 720 495.833 716.167 496.5 712L521.667 561C522.167 557.667 525.167 555.167 528.5 555.167H762C766.333 555.167 769.5 559 768.833 563.167L743.667 714.167C743.167 717.5 740.333 720 737 720Z" fill="#B7D4F7"/>
<path d="M637.167 807.5H594.667C590.667 807.5 587.667 804.167 588 800.167L599.167 689.334C599.5 686 602.333 683.333 605.833 683.333H648.333C652.333 683.333 655.333 686.667 655 690.667L643.833 801.5C643.5 805 640.667 807.5 637.167 807.5Z" fill="#E1ECFF"/>
<path d="M640.167 807.5H601.167C598.667 807.5 596.667 805.334 596.833 802.834L608.5 687.167C608.667 685 610.5 683.333 612.833 683.333H651.833C654.333 683.333 656.333 685.5 656.167 688L644.5 803.667C644.167 805.834 642.333 807.5 640.167 807.5Z" fill="#C7DCF9"/>
<path d="M707.833 819.667H530.833C527.167 819.667 524.167 816.667 524.167 813V798.334C524.167 794.667 527.167 791.667 530.833 791.667H707.833C711.5 791.667 714.5 794.667 714.5 798.334V813C714.5 816.667 711.5 819.667 707.833 819.667Z" fill="#E1ECFF"/>
<path d="M711.5 819.667H545C541.167 819.667 538 816.5 538 812.667V798.667C538 794.834 541.167 791.667 545 791.667H711.5C715.333 791.667 718.5 794.834 718.5 798.667V812.667C718.333 816.5 715.333 819.667 711.5 819.667Z" fill="#C7DCF9"/>
<path d="M835.833 497.834C834.167 499 832 499.833 829.667 499.833H670C662 499.833 657 491.5 660.667 484.333L718.667 372.833L740 331.833C744 324.333 754.667 324.333 758.667 331.833L839 484.333C841.667 489.334 839.833 495 835.833 497.834Z" fill="#FF97C9"/>
<path d="M835.833 497.834C834.167 499 832 499.833 829.667 499.833H670C662 499.833 657 491.5 660.667 484.334L718.667 372.833L701 466.667C699.5 474.667 705 482.167 713.167 483.167L835.833 497.834Z" fill="#FC72BB"/>
<path d="M742 440.167L733.667 380.5C733.333 378.5 735 376.667 737 376.667H760.667C762.667 376.667 764.167 378.5 764 380.5L755.667 440.167C755.5 441.834 754 443 752.333 443H745.167C743.5 443.167 742.167 441.834 742 440.167Z" fill="white"/>
<path d="M748.833 477C755.369 477 760.667 471.702 760.667 465.167C760.667 458.631 755.369 453.333 748.833 453.333C742.298 453.333 737 458.631 737 465.167C737 471.702 742.298 477 748.833 477Z" fill="white"/>
<path d="M316.167 235.333L319.167 241.5C319.5 242.333 320.333 242.833 321.167 242.833L327.833 243.834C330 244.167 330.833 246.667 329.167 248.167L324.333 252.833C323.667 253.5 323.5 254.334 323.667 255.167L324.833 261.834C325.167 263.834 323 265.5 321.167 264.5L315.167 261.334C314.5 261 313.5 261 312.833 261.334L306.833 264.5C305 265.5 302.833 263.834 303.167 261.834L304.333 255.167C304.5 254.334 304.167 253.5 303.667 252.833L298.833 248.167C297.333 246.667 298.167 244.167 300.167 243.834L306.833 242.833C307.667 242.667 308.333 242.167 308.833 241.5L311.833 235.333C312.5 233.5 315.167 233.5 316.167 235.333Z" fill="#FEC272"/>
<path d="M640.5 283.667C640.5 306.667 633.833 328 622.333 346.167C618.167 355.833 597.167 396.667 525.833 429.333C451 463.667 384.667 439.167 384.667 439.167C384.667 439.167 425.5 412.333 417.833 367.5C411.833 332.167 407.667 306.833 408 285.5C408 284.833 408 284.333 408 283.667C408 219.5 460 167.5 524.167 167.5C588.333 167.5 640.5 219.5 640.5 283.667Z" fill="#F0F6FF"/>
<path d="M396.833 360.833C390.667 345 384.5 345.667 380.333 348.667C376.5 351.5 375.667 361.333 380.333 370.667C385 380 389.667 379.333 394.333 376.833C399 374.333 399.667 368.167 396.833 360.833Z" fill="#C7DCF9"/>
<path d="M602.667 395.833C577 409.5 579.333 420 585.333 426.333C591 432.333 607.833 431.667 622.667 422C637.5 412.333 635.667 404.5 630.5 397C625.333 389.5 614.5 389.333 602.667 395.833Z" fill="#C7DCF9"/>
<path d="M607.667 319.667C607.667 326 604.667 332.333 599 336.167C586.667 344.833 567 357.667 545.333 369C531.5 376.333 519.5 382 509.833 386.167C501.833 389.667 493 389 485.833 385C481 382.333 477 378.167 474.5 372.833C472.833 369.167 471.833 365.167 471.833 361.167C471.833 357.833 472.5 354.5 473.667 351.167L474.333 349.333L503 276.667L464.667 297.333C454 303 440.833 299.333 434.667 288.833C434.5 288.5 434.333 288.167 434.167 287.833C432.5 284.5 431.667 281 431.667 277.5C431.667 270.167 435.333 262.833 442 258.667C454.167 250.833 471.833 240.167 492.833 229C533.167 207.5 553.167 210.167 558.833 221C564.5 232 532 324 532 324C532 324 575.5 302.167 580.167 300.5C590.167 296.667 601.333 301.333 605.833 311C606.833 313.167 607.333 315.5 607.5 317.833C607.667 318.667 607.667 319.167 607.667 319.667Z" fill="#99ADF9"/>
<path d="M515.167 264.667C505.5 288.5 482.667 343.333 474.667 349.5L503.333 276.833L465 297.5C454.333 303.333 440.833 299.5 434.833 288.833C435.167 288.5 434.833 288.833 435.167 288.5C439 290.333 445.833 292 456 287C475 278 496.667 266.167 509.167 259.333C512.667 257.5 516.667 261 515.167 264.667Z" fill="#7D9AF9"/>
<path d="M607.667 319.667C607.667 326 604.667 332.333 599 336.167C586.667 344.833 567 357.667 545.333 369C531.5 376.333 519.5 382 509.833 386.167C501.833 389.667 493 389 485.833 385C487.333 384.667 488.833 384.333 490.167 383.833C497.667 381.333 531.5 363.5 564.667 345.667C586.333 334 601 324.667 607.5 318.333C607.667 318.667 607.667 319.167 607.667 319.667Z" fill="#7D9AF9"/>
<path opacity="0.49" d="M523.667 219.334C508.667 224.334 501 233.667 519 232.667C537 231.667 546.5 222.5 543.333 219.5C540.167 216.667 530.5 217 523.667 219.334Z" fill="white"/>
<path opacity="0.49" d="M581.167 304.334C571.667 307.5 566.667 313.5 578.167 312.834C589.667 312.167 595.667 306.334 593.667 304.5C591.5 302.667 585.5 302.834 581.167 304.334Z" fill="white"/>
</g>
<defs>
<clipPath id="clip0_102_15014">
<rect width="1000" height="1000" rx="50" fill="white"/>
</clipPath>
</defs>
</svg>
