<svg width="24" height="24" viewBox="0 0 24 24" fill="none" xmlns="http://www.w3.org/2000/svg">
<path fill-rule="evenodd" clip-rule="evenodd" d="M12 18.0012C11.8011 18.0012 11.6104 17.9222 11.4697 17.7816C11.329 17.6409 11.25 17.4501 11.25 17.2512L11.25 8.56172L8.03103 11.7822C7.9613 11.852 7.87851 11.9073 7.78741 11.945C7.6963 11.9827 7.59865 12.0022 7.50003 12.0022C7.40141 12.0022 7.30376 11.9827 7.21265 11.945C7.12155 11.9073 7.03876 11.852 6.96903 11.7822C6.8993 11.7125 6.84398 11.6297 6.80625 11.5386C6.76851 11.4475 6.74908 11.3498 6.74908 11.2512C6.74908 11.1526 6.76851 11.055 6.80625 10.9638C6.84398 10.8727 6.8993 10.79 6.96903 10.7202L11.469 6.22022C11.5387 6.15038 11.6215 6.09496 11.7126 6.05715C11.8037 6.01934 11.9014 5.99988 12 5.99988C12.0987 5.99988 12.1964 6.01934 12.2875 6.05715C12.3786 6.09496 12.4614 6.15038 12.531 6.22022L17.031 10.7202C17.1008 10.79 17.1561 10.8727 17.1938 10.9638C17.2316 11.055 17.251 11.1526 17.251 11.2512C17.251 11.3498 17.2316 11.4475 17.1938 11.5386C17.1561 11.6297 17.1008 11.7125 17.031 11.7822C16.8902 11.9231 16.6992 12.0022 16.5 12.0022C16.4014 12.0022 16.3038 11.9827 16.2127 11.945C16.1215 11.9073 16.0388 11.852 15.969 11.7822L12.75 8.56172L12.75 17.2512C12.75 17.4501 12.671 17.6409 12.5304 17.7816C12.3897 17.9222 12.1989 18.0012 12 18.0012V18.0012Z" fill="#FB4C4C"/>
</svg>
