<svg width="25" height="24" viewBox="0 0 25 24" fill="none" xmlns="http://www.w3.org/2000/svg">
<path fill-rule="evenodd" clip-rule="evenodd" d="M12.2509 6C12.4499 6 12.6406 6.07902 12.7813 6.21967C12.9219 6.36032 13.0009 6.55109 13.0009 6.75V15.4395L16.2199 12.219C16.2897 12.1493 16.3725 12.094 16.4636 12.0562C16.5547 12.0185 16.6523 11.9991 16.7509 11.9991C16.8496 11.9991 16.9472 12.0185 17.0383 12.0562C17.1294 12.094 17.2122 12.1493 17.2819 12.219C17.3517 12.2887 17.407 12.3715 17.4447 12.4626C17.4825 12.5537 17.5019 12.6514 17.5019 12.75C17.5019 12.8486 17.4825 12.9463 17.4447 13.0374C17.407 13.1285 17.3517 13.2113 17.2819 13.281L12.7819 17.781C12.7123 17.8508 12.6295 17.9063 12.5384 17.9441C12.4473 17.9819 12.3496 18.0013 12.2509 18.0013C12.1523 18.0013 12.0546 17.9819 11.9635 17.9441C11.8724 17.9063 11.7896 17.8508 11.7199 17.781L7.21995 13.281C7.15022 13.2113 7.0949 13.1285 7.05716 13.0374C7.01942 12.9463 7 12.8486 7 12.75C7 12.6514 7.01942 12.5537 7.05716 12.4626C7.0949 12.3715 7.15022 12.2887 7.21995 12.219C7.36078 12.0782 7.55178 11.9991 7.75095 11.9991C7.84956 11.9991 7.94721 12.0185 8.03832 12.0562C8.12943 12.094 8.21222 12.1493 8.28195 12.219L11.5009 15.4395V6.75C11.5009 6.55109 11.58 6.36032 11.7206 6.21967C11.8613 6.07902 12.052 6 12.2509 6V6Z" fill="#418DFF"/>
</svg>
