<svg width="20" height="20" viewBox="0 0 20 20" fill="none" xmlns="http://www.w3.org/2000/svg">
<path d="M1.6665 14.2167H9.99984" stroke="#51C72D" stroke-width="1.5" stroke-miterlimit="10" stroke-linecap="round" stroke-linejoin="round"/>
<path d="M4.74147 18.3333H3.52478C2.04145 18.3333 1.6748 17.9667 1.6748 16.5V13.0833C1.6748 11.6167 2.04145 11.25 3.52478 11.25H8.15811C9.64144 11.25 10.0081 11.6167 10.0081 13.0833V16.5083C10.0081 17.975 9.64144 18.3417 8.15811 18.3417" stroke="#51C72D" stroke-width="1.5" stroke-linecap="round" stroke-linejoin="round"/>
<path d="M18.3333 12.5C18.3333 15.725 15.725 18.3333 12.5 18.3333L13.375 16.875" stroke="#51C72D" stroke-width="1.5" stroke-linecap="round" stroke-linejoin="round"/>
<path d="M1.6665 7.49996C1.6665 4.27496 4.27484 1.66663 7.49984 1.66663L6.62485 3.12496" stroke="#51C72D" stroke-width="1.5" stroke-linecap="round" stroke-linejoin="round"/>
<path d="M15.4165 9.16663C17.4915 9.16663 19.1665 7.49163 19.1665 5.41663C19.1665 3.34163 17.4915 1.66663 15.4165 1.66663C13.3415 1.66663 11.6665 3.34163 11.6665 5.41663C11.6665 5.90829 11.7582 6.37496 11.9332 6.79996" stroke="#51C72D" stroke-width="1.5" stroke-linecap="round" stroke-linejoin="round"/>
</svg>
