<svg width="20" height="20" viewBox="0 0 20 20" fill="none" xmlns="http://www.w3.org/2000/svg">
<path fill-rule="evenodd" clip-rule="evenodd" d="M10.1549 1.79679C11.197 0.607468 13.1519 1.35326 13.1519 2.92495V8.17495H14.9769C16.4536 8.17495 17.2426 9.90941 16.2649 11.0204C15.9913 11.3314 15.5174 11.3616 15.2064 11.088C14.8955 10.8143 14.8652 10.3404 15.1388 10.0295C15.2612 9.89049 15.1669 9.67495 14.9769 9.67495H12.4019C11.9877 9.67495 11.6519 9.33916 11.6519 8.92495V2.92495C11.6519 2.86587 11.6353 2.82932 11.6164 2.80347C11.5945 2.77373 11.5596 2.74588 11.5142 2.72876C11.4689 2.71165 11.4247 2.70965 11.3894 2.71746C11.3588 2.72422 11.3223 2.74052 11.283 2.78549L11.2815 2.78716L11.2815 2.78716L4.97326 9.95375C4.97324 9.95378 4.97322 9.9538 4.9732 9.95383C4.85098 10.0928 4.94526 10.3083 5.13522 10.3083H7.71022C8.12443 10.3083 8.46022 10.6441 8.46022 11.0583V17.0583C8.46022 17.1174 8.47677 17.1539 8.49575 17.1798C8.51759 17.2095 8.55249 17.2374 8.59786 17.2545C8.6432 17.2716 8.68735 17.2736 8.72271 17.2658C8.75329 17.259 8.78976 17.2427 8.82911 17.1977L8.83057 17.1961L12.6889 12.8127C12.9626 12.5018 13.4365 12.4716 13.7474 12.7453C14.0583 13.019 14.0885 13.4929 13.8148 13.8038L9.95797 18.1855C9.95768 18.1858 9.95739 18.1862 9.95709 18.1865C8.91502 19.3757 6.96022 18.6299 6.96022 17.0583V11.8083H5.13522C3.65854 11.8083 2.8695 10.0738 3.84719 8.96281L3.84725 8.96274L10.1541 1.79774C10.1544 1.79742 10.1547 1.79711 10.1549 1.79679Z" fill="#51C72D"/>
</svg>
