<svg width="current" height="current" viewBox="0 0 24 24" fill="none" xmlns="http://www.w3.org/2000/svg">
<path d="M2.15588 13.28H5.24588V20.48C5.24588 21.54 6.56588 22.04 7.26588 21.24L14.8359 12.64C15.4959 11.89 14.9659 10.72 13.9659 10.72H10.8759V3.51997C10.8759 2.45997 9.55588 1.95997 8.85588 2.75997L1.28588 11.36C0.635876 12.11 1.16588 13.28 2.15588 13.28Z" fill="#00D9FF"/>
<path opacity="0.75" d="M14.75 4.75H21.75C22.16 4.75 22.5 4.41 22.5 4C22.5 3.59 22.16 3.25 21.75 3.25H14.75C14.34 3.25 14 3.59 14 4C14 4.41 14.34 4.75 14.75 4.75Z" fill="#B9F5FF"/>
<path opacity="0.75" d="M15.75 20.75H21.75C22.16 20.75 22.5 20.41 22.5 20C22.5 19.59 22.16 19.25 21.75 19.25H15.75C15.34 19.25 15 19.59 15 20C15 20.41 15.34 20.75 15.75 20.75Z" fill="#B9F5FF"/>
<path opacity="0.75" d="M18.75 12.75H21.75C22.16 12.75 22.5 12.41 22.5 12C22.5 11.59 22.16 11.25 21.75 11.25H18.75C18.34 11.25 18 11.59 18 12C18 12.41 18.34 12.75 18.75 12.75Z" fill="#B9F5FF"/>
</svg>
