<svg width="20" height="20" viewBox="0 0 20 20" fill="none" xmlns="http://www.w3.org/2000/svg">
<path fill-rule="evenodd" clip-rule="evenodd" d="M15.0132 2.41663C14.499 2.41833 14.083 2.8367 14.083 3.34162V8.41663H16.183C16.6808 8.41663 17.0141 8.26233 17.2214 8.05505C17.4287 7.84776 17.583 7.51439 17.583 7.01662V4.99996C17.583 4.29296 17.2947 3.64645 16.8259 3.17014C16.3638 2.70905 15.7199 2.42409 15.0132 2.41663ZM12.583 3.34162C12.583 1.99758 13.682 0.916626 15.0163 0.916626H15.0232L15.0232 0.916658C16.1308 0.926819 17.1513 1.37426 17.8883 2.11129L17.892 2.11495L17.892 2.11496C18.622 2.85514 19.083 3.87454 19.083 4.99996V7.01662C19.083 7.83552 18.8206 8.57716 18.2821 9.11571C17.7435 9.65425 17.0019 9.91663 16.183 9.91663H13.333C12.9188 9.91663 12.583 9.58084 12.583 9.16663V3.34162Z" fill="#FCA746"/>
<path fill-rule="evenodd" clip-rule="evenodd" d="M6.75 10.8417C6.75 10.4275 7.08579 10.0917 7.5 10.0917H10C10.4142 10.0917 10.75 10.4275 10.75 10.8417C10.75 11.2559 10.4142 11.5917 10 11.5917H7.5C7.08579 11.5917 6.75 11.2559 6.75 10.8417Z" fill="#FCA746"/>
<path fill-rule="evenodd" clip-rule="evenodd" d="M6.75 7.5083C6.75 7.09409 7.08579 6.7583 7.5 6.7583H10C10.4142 6.7583 10.75 7.09409 10.75 7.5083C10.75 7.92251 10.4142 8.2583 10 8.2583H7.5C7.08579 8.2583 6.75 7.92251 6.75 7.5083Z" fill="#FCA746"/>
<path fill-rule="evenodd" clip-rule="evenodd" d="M1.82803 2.15248C2.52865 1.34116 3.5963 0.916626 4.99984 0.916626H14.9998C15.4141 0.916626 15.7498 1.25241 15.7498 1.66663C15.7498 2.08084 15.4141 2.41663 14.9998 2.41663C14.4974 2.41663 14.0832 2.83084 14.0832 3.33329V17.5C14.0832 18.8051 12.5933 19.5413 11.5528 18.7688L11.5504 18.767L10.1175 17.6945C10.1076 17.6869 10.0931 17.6811 10.073 17.6825C10.0526 17.6839 10.0349 17.6922 10.0218 17.7053L8.62183 19.1053C8.00394 19.7232 6.99573 19.7232 6.37784 19.1053L6.37625 19.1037L4.99451 17.7136C4.99436 17.7135 4.99465 17.7138 4.99451 17.7136C4.95532 17.6748 4.90588 17.6767 4.87484 17.7L3.45273 18.7644C3.45204 18.765 3.45135 18.7655 3.45066 18.766C2.40248 19.5576 0.916504 18.805 0.916504 17.5V9.16663C0.916504 8.75241 1.25229 8.41663 1.6665 8.41663C2.08072 8.41663 2.4165 8.75241 2.4165 9.16663V17.5C2.4165 17.5274 2.42318 17.5409 2.42819 17.5487C2.43479 17.5589 2.44614 17.57 2.46233 17.5781C2.47852 17.5862 2.4936 17.5883 2.50457 17.5875C2.51254 17.5869 2.52608 17.5846 2.54694 17.5688L2.55039 17.5662L3.97484 16.5C4.61034 16.0233 5.49443 16.0922 6.05517 16.653L6.05676 16.6546L7.4385 18.0446C7.43864 18.0448 7.43836 18.0445 7.4385 18.0446C7.45312 18.059 7.47398 18.0687 7.49984 18.0687C7.52593 18.0687 7.54653 18.0593 7.56117 18.0446L8.96117 16.6446C9.51324 16.0926 10.3991 16.0221 11.0276 16.502L12.4469 17.5644C12.4471 17.5646 12.4467 17.5643 12.4469 17.5644C12.4663 17.5787 12.4804 17.5818 12.49 17.5825C12.5026 17.5833 12.5196 17.5807 12.5373 17.5718C12.5551 17.563 12.5667 17.5513 12.573 17.5416C12.5776 17.5346 12.5832 17.5233 12.5832 17.5V3.33329C12.5832 3.00915 12.6476 2.69955 12.7642 2.41663H4.99984C3.90338 2.41663 3.30436 2.73792 2.96331 3.13286C2.6045 3.54835 2.4165 4.17699 2.4165 4.99996V5.83329C2.4165 6.24751 2.08072 6.58329 1.6665 6.58329C1.25229 6.58329 0.916504 6.24751 0.916504 5.83329V4.99996C0.916504 3.98126 1.14517 2.94323 1.82803 2.15248Z" fill="#FCA746"/>
<path fill-rule="evenodd" clip-rule="evenodd" d="M3.99609 10.8333C3.99609 10.281 4.44381 9.83325 4.99609 9.83325H5.00358C5.55586 9.83325 6.00358 10.281 6.00358 10.8333C6.00358 11.3855 5.55586 11.8333 5.00358 11.8333H4.99609C4.44381 11.8333 3.99609 11.3855 3.99609 10.8333Z" fill="#FCA746"/>
<path fill-rule="evenodd" clip-rule="evenodd" d="M3.99609 7.5C3.99609 6.94772 4.44381 6.5 4.99609 6.5H5.00358C5.55586 6.5 6.00358 6.94772 6.00358 7.5C6.00358 8.05228 5.55586 8.5 5.00358 8.5H4.99609C4.44381 8.5 3.99609 8.05228 3.99609 7.5Z" fill="#FCA746"/>
</svg>
