<svg width="20" height="20" viewBox="0 0 20 20" fill="none" xmlns="http://www.w3.org/2000/svg">
<path d="M17.4912 13.0916C17.4912 16.8333 15.9912 18.3333 12.2495 18.3333H7.75788C4.01621 18.3333 2.51621 16.8333 2.51621 13.0916V9.34998" stroke="#FCA746" stroke-width="1.5" stroke-linecap="round" stroke-linejoin="round"/>
<path d="M9.99976 9.99996C8.47476 9.99996 7.34976 8.75829 7.49976 7.23329L8.04976 1.66663H11.9414L12.4998 7.23329C12.6498 8.75829 11.5248 9.99996 9.99976 9.99996Z" stroke="#FCA746" stroke-width="1.5" stroke-linecap="round" stroke-linejoin="round"/>
<path d="M4.74134 9.99996C3.05801 9.99996 1.82467 8.63329 1.99134 6.95829L2.22467 4.66663C2.52467 2.49996 3.35801 1.66663 5.54134 1.66663H8.08301L7.49967 7.50829C7.35801 8.88329 6.11634 9.99996 4.74134 9.99996Z" stroke="#FCA746" stroke-width="1.5" stroke-linecap="round" stroke-linejoin="round"/>
<path d="M15.2999 9.99996C13.9249 9.99996 12.6832 8.88329 12.5499 7.50829L12.3665 5.66663L11.9665 1.66663H14.5082C16.6915 1.66663 17.5249 2.49996 17.8249 4.66663L18.0499 6.95829C18.2165 8.63329 16.9832 9.99996 15.2999 9.99996Z" stroke="#FCA746" stroke-width="1.5" stroke-linecap="round" stroke-linejoin="round"/>
<path d="M9.99967 14.1666C11.3913 14.1666 12.083 14.8583 12.083 16.25V18.3333H7.91634V16.25C7.91634 14.8583 8.60801 14.1666 9.99967 14.1666Z" stroke="#FCA746" stroke-width="1.5" stroke-linecap="round" stroke-linejoin="round"/>
</svg>
