<svg width="19" height="19" viewBox="0 0 19 19" fill="none" xmlns="http://www.w3.org/2000/svg">
<path d="M14.25 0.791016H4.75C4.12011 0.791016 3.51602 1.04124 3.07062 1.48664C2.62522 1.93204 2.375 2.53613 2.375 3.16602V17.416C2.37503 17.5726 2.42148 17.7256 2.50847 17.8558C2.59547 17.9859 2.71909 18.0874 2.86373 18.1473C3.00837 18.2072 3.16752 18.2228 3.32107 18.1923C3.47461 18.1618 3.61566 18.0864 3.72637 17.9757L5.41896 16.2839L6.46633 17.8546C6.53071 17.9527 6.61611 18.0353 6.71633 18.0964C6.81656 18.1574 6.92911 18.1955 7.04583 18.2077C7.16249 18.2201 7.28043 18.206 7.3909 18.1665C7.50137 18.1271 7.60153 18.0632 7.68392 17.9797L9.5 16.1604L11.3153 17.9757C11.3981 18.0585 11.4983 18.1219 11.6086 18.1612C11.7189 18.2006 11.8366 18.215 11.9531 18.2035C12.0697 18.1919 12.1822 18.1546 12.2826 18.0942C12.383 18.0339 12.4687 17.9521 12.5337 17.8546L13.581 16.2839L15.2736 17.9757C15.3843 18.0864 15.5254 18.1618 15.6789 18.1923C15.8325 18.2228 15.9916 18.2072 16.1363 18.1473C16.2809 18.0874 16.4045 17.9859 16.4915 17.8558C16.5785 17.7256 16.625 17.5726 16.625 17.416V3.16602C16.625 2.53613 16.3748 1.93204 15.9294 1.48664C15.484 1.04124 14.8799 0.791016 14.25 0.791016ZM15.0417 15.5049L14.018 14.4813C13.9357 14.3977 13.8356 14.3338 13.7251 14.2943C13.6146 14.2548 13.4966 14.2408 13.38 14.2533C13.2635 14.2649 13.1511 14.3021 13.0507 14.3623C12.9504 14.4226 12.8646 14.5043 12.7997 14.6016L11.7523 16.1731L10.0597 14.4813C9.91125 14.3329 9.70992 14.2495 9.5 14.2495C9.29008 14.2495 9.08875 14.3329 8.94029 14.4813L7.24771 16.1731L6.20033 14.6016C6.13533 14.5042 6.04953 14.4224 5.94911 14.3622C5.84869 14.3019 5.73616 14.2647 5.61962 14.2532C5.50308 14.2417 5.38543 14.2562 5.27517 14.2956C5.1649 14.3351 5.06476 14.3985 4.98196 14.4813L3.95833 15.5049V3.16602C3.95833 2.95605 4.04174 2.75469 4.19021 2.60622C4.33867 2.45776 4.54004 2.37435 4.75 2.37435H14.25C14.46 2.37435 14.6613 2.45776 14.8098 2.60622C14.9583 2.75469 15.0417 2.95605 15.0417 3.16602V15.5049ZM10.2917 8.70768C10.2917 8.91765 10.2083 9.11901 10.0598 9.26748C9.91133 9.41594 9.70996 9.49935 9.5 9.49935H6.33333C6.12337 9.49935 5.92201 9.41594 5.77354 9.26748C5.62507 9.11901 5.54167 8.91765 5.54167 8.70768C5.54167 8.49772 5.62507 8.29636 5.77354 8.14789C5.92201 7.99942 6.12337 7.91602 6.33333 7.91602H9.5C9.70996 7.91602 9.91133 7.99942 10.0598 8.14789C10.2083 8.29636 10.2917 8.49772 10.2917 8.70768ZM10.2917 11.8743C10.2917 12.0843 10.2083 12.2857 10.0598 12.4341C9.91133 12.5826 9.70996 12.666 9.5 12.666H6.33333C6.12337 12.666 5.92201 12.5826 5.77354 12.4341C5.62507 12.2857 5.54167 12.0843 5.54167 11.8743C5.54167 11.6644 5.62507 11.463 5.77354 11.3146C5.92201 11.1661 6.12337 11.0827 6.33333 11.0827H9.5C9.70996 11.0827 9.91133 11.1661 10.0598 11.3146C10.2083 11.463 10.2917 11.6644 10.2917 11.8743ZM13.4583 8.70768C13.4583 8.91765 13.3749 9.11901 13.2265 9.26748C13.078 9.41594 12.8766 9.49935 12.6667 9.49935H11.875C11.665 9.49935 11.4637 9.41594 11.3152 9.26748C11.1667 9.11901 11.0833 8.91765 11.0833 8.70768C11.0833 8.49772 11.1667 8.29636 11.3152 8.14789C11.4637 7.99942 11.665 7.91602 11.875 7.91602H12.6667C12.8766 7.91602 13.078 7.99942 13.2265 8.14789C13.3749 8.29636 13.4583 8.49772 13.4583 8.70768ZM13.4583 11.8743C13.4583 12.0843 13.3749 12.2857 13.2265 12.4341C13.078 12.5826 12.8766 12.666 12.6667 12.666H11.875C11.665 12.666 11.4637 12.5826 11.3152 12.4341C11.1667 12.2857 11.0833 12.0843 11.0833 11.8743C11.0833 11.6644 11.1667 11.463 11.3152 11.3146C11.4637 11.1661 11.665 11.0827 11.875 11.0827H12.6667C12.8766 11.0827 13.078 11.1661 13.2265 11.3146C13.3749 11.463 13.4583 11.6644 13.4583 11.8743ZM13.4583 4.74935C13.4583 4.95931 13.3749 5.16068 13.2265 5.30914C13.078 5.45761 12.8766 5.54102 12.6667 5.54102H6.33333C6.12337 5.54102 5.92201 5.45761 5.77354 5.30914C5.62507 5.16068 5.54167 4.95931 5.54167 4.74935C5.54167 4.53939 5.62507 4.33802 5.77354 4.18956C5.92201 4.04109 6.12337 3.95768 6.33333 3.95768H12.6667C12.8766 3.95768 13.078 4.04109 13.2265 4.18956C13.3749 4.33802 13.4583 4.53939 13.4583 4.74935Z" fill="white"/>
</svg>
