<svg width="19" height="19" viewBox="0 0 19 19" fill="none" xmlns="http://www.w3.org/2000/svg">
<path d="M17.417 6.72862H15.4655L12.5364 2.33091C12.4198 2.15622 12.2387 2.03498 12.0328 1.99385C11.8268 1.95273 11.613 1.99509 11.4383 2.11162C11.2636 2.22815 11.1424 2.4093 11.1013 2.61522C11.0601 2.82114 11.1025 3.03497 11.219 3.20966L13.5632 6.72862H5.43749L7.78399 3.20966C7.90052 3.03497 7.94288 2.82114 7.90176 2.61522C7.86063 2.4093 7.73939 2.22815 7.5647 2.11162C7.39001 1.99509 7.17619 1.95273 6.97026 1.99385C6.76434 2.03498 6.58319 2.15622 6.46666 2.33091L3.53512 6.72862H1.58366C1.3737 6.72862 1.17233 6.81202 1.02387 6.96049C0.8754 7.10896 0.791992 7.31032 0.791992 7.52028C0.791992 7.73025 0.8754 7.93161 1.02387 8.08008C1.17233 8.22854 1.3737 8.31195 1.58366 8.31195H2.37533V14.6453C2.37533 15.2752 2.62555 15.8793 3.07095 16.3247C3.51635 16.7701 4.12044 17.0203 4.75033 17.0203H14.2503C14.8802 17.0203 15.4843 16.7701 15.9297 16.3247C16.3751 15.8793 16.6253 15.2752 16.6253 14.6453V8.31195H17.417C17.627 8.31195 17.8283 8.22854 17.9768 8.08008C18.1253 7.93161 18.2087 7.73025 18.2087 7.52028C18.2087 7.31032 18.1253 7.10896 17.9768 6.96049C17.8283 6.81202 17.627 6.72862 17.417 6.72862ZM15.042 14.6453C15.042 14.8552 14.9586 15.0566 14.8101 15.2051C14.6617 15.3535 14.4603 15.4369 14.2503 15.4369H4.75033C4.54036 15.4369 4.339 15.3535 4.19053 15.2051C4.04207 15.0566 3.95866 14.8552 3.95866 14.6453V8.31195H15.042V14.6453ZM5.54199 13.4578V10.2911C5.54199 10.0812 5.6254 9.87979 5.77387 9.73132C5.92233 9.58286 6.1237 9.49945 6.33366 9.49945C6.54362 9.49945 6.74499 9.58286 6.89345 9.73132C7.04192 9.87979 7.12533 10.0812 7.12533 10.2911V13.4578C7.12533 13.6677 7.04192 13.8691 6.89345 14.0176C6.74499 14.166 6.54362 14.2495 6.33366 14.2495C6.1237 14.2495 5.92233 14.166 5.77387 14.0176C5.6254 13.8691 5.54199 13.6677 5.54199 13.4578ZM8.70866 13.4578V10.2911C8.70866 10.0812 8.79207 9.87979 8.94053 9.73132C9.089 9.58286 9.29036 9.49945 9.50033 9.49945C9.71029 9.49945 9.91165 9.58286 10.0601 9.73132C10.2086 9.87979 10.292 10.0812 10.292 10.2911V13.4578C10.292 13.6677 10.2086 13.8691 10.0601 14.0176C9.91165 14.166 9.71029 14.2495 9.50033 14.2495C9.29036 14.2495 9.089 14.166 8.94053 14.0176C8.79207 13.8691 8.70866 13.6677 8.70866 13.4578ZM11.8753 13.4578V10.2911C11.8753 10.0812 11.9587 9.87979 12.1072 9.73132C12.2557 9.58286 12.457 9.49945 12.667 9.49945C12.877 9.49945 13.0783 9.58286 13.2268 9.73132C13.3753 9.87979 13.4587 10.0812 13.4587 10.2911V13.4578C13.4587 13.6677 13.3753 13.8691 13.2268 14.0176C13.0783 14.166 12.877 14.2495 12.667 14.2495C12.457 14.2495 12.2557 14.166 12.1072 14.0176C11.9587 13.8691 11.8753 13.6677 11.8753 13.4578Z" fill="white"/>
</svg>
