<svg width="19" height="19" viewBox="0 0 19 19" fill="none" xmlns="http://www.w3.org/2000/svg">
<path d="M16.625 4.74935C16.6242 4.53917 16.5406 4.33779 16.3923 4.18885L13.2256 1.02219C13.1523 0.949015 13.0655 0.890918 12.9699 0.851186C12.8738 0.811159 12.7707 0.790704 12.6667 0.791019H3.16667C2.9567 0.791019 2.75534 0.874427 2.60687 1.02289C2.45841 1.17136 2.375 1.37272 2.375 1.58269V17.416C2.375 17.626 2.45841 17.8273 2.60687 17.9758C2.75534 18.1243 2.9567 18.2077 3.16667 18.2077H15.8333C16.0433 18.2077 16.2447 18.1243 16.3931 17.9758C16.5416 17.8273 16.625 17.626 16.625 17.416V4.74935ZM15.0417 16.6244H3.95833V2.37435H11.875V4.74935C11.875 4.95932 11.9584 5.16068 12.1069 5.30914C12.2553 5.45761 12.4567 5.54102 12.6667 5.54102H15.0417V16.6244ZM12.6667 7.12435C12.8766 7.12435 13.078 7.20776 13.2265 7.35623C13.3749 7.50469 13.4583 7.70606 13.4583 7.91602C13.4583 8.12598 13.3749 8.32735 13.2265 8.47581C13.078 8.62428 12.8766 8.70769 12.6667 8.70769H6.33333C6.12337 8.70769 5.92201 8.62428 5.77354 8.47581C5.62507 8.32735 5.54167 8.12598 5.54167 7.91602C5.54167 7.70606 5.62507 7.50469 5.77354 7.35623C5.92201 7.20776 6.12337 7.12435 6.33333 7.12435H12.6667ZM5.54167 4.74935C5.54167 4.53939 5.62507 4.33803 5.77354 4.18956C5.92201 4.04109 6.12337 3.95769 6.33333 3.95769H9.5C9.70996 3.95769 9.91133 4.04109 10.0598 4.18956C10.2083 4.33803 10.2917 4.53939 10.2917 4.74935C10.2917 4.95932 10.2083 5.16068 10.0598 5.30914C9.91133 5.45761 9.70996 5.54102 9.5 5.54102H6.33333C6.12337 5.54102 5.92201 5.45761 5.77354 5.30914C5.62507 5.16068 5.54167 4.95932 5.54167 4.74935ZM13.4583 11.0827C13.4583 11.2926 13.3749 11.494 13.2265 11.6425C13.078 11.7909 12.8766 11.8744 12.6667 11.8744H6.33333C6.12337 11.8744 5.92201 11.7909 5.77354 11.6425C5.62507 11.494 5.54167 11.2926 5.54167 11.0827C5.54167 10.8727 5.62507 10.6714 5.77354 10.5229C5.92201 10.3744 6.12337 10.291 6.33333 10.291H12.6667C12.8766 10.291 13.078 10.3744 13.2265 10.5229C13.3749 10.6714 13.4583 10.8727 13.4583 11.0827ZM13.4583 14.2494C13.4583 14.4593 13.3749 14.6607 13.2265 14.8091C13.078 14.9576 12.8766 15.041 12.6667 15.041H6.33333C6.12337 15.041 5.92201 14.9576 5.77354 14.8091C5.62507 14.6607 5.54167 14.4593 5.54167 14.2494C5.54167 14.0394 5.62507 13.838 5.77354 13.6896C5.92201 13.5411 6.12337 13.4577 6.33333 13.4577H12.6667C12.8766 13.4577 13.078 13.5411 13.2265 13.6896C13.3749 13.838 13.4583 14.0394 13.4583 14.2494Z" fill="white"/>
</svg>
