<svg width="19" height="19" viewBox="0 0 19 19" fill="none" xmlns="http://www.w3.org/2000/svg">
<g clip-path="url(#clip0_730_765)">
<path d="M15.6199 13.1909C16.0117 12.7059 16.2267 12.102 16.2295 11.4785C16.2295 10.7436 15.9376 10.0389 15.4179 9.51924C14.8983 8.99961 14.1935 8.70768 13.4587 8.70768C12.7238 8.70768 12.019 8.99961 11.4994 9.51924C10.9798 10.0389 10.6878 10.7436 10.6878 11.4785C10.6906 12.102 10.9056 12.7059 11.2974 13.1909C10.5712 13.5636 9.95257 14.1161 9.50033 14.7956C9.04808 14.1161 8.42942 13.5636 7.70324 13.1909C8.09502 12.7059 8.31001 12.102 8.31283 11.4785C8.31283 10.7436 8.0209 10.0389 7.50127 9.51924C6.98163 8.99961 6.27686 8.70768 5.54199 8.70768C4.80712 8.70768 4.10235 8.99961 3.58272 9.51924C3.06309 10.0389 2.77116 10.7436 2.77116 11.4785C2.77397 12.102 2.98896 12.7059 3.38074 13.1909C2.60219 13.5887 1.94854 14.1937 1.49177 14.9391C1.03501 15.6846 0.792859 16.5417 0.791992 17.416C0.791992 17.626 0.8754 17.8273 1.02387 17.9758C1.17233 18.1243 1.3737 18.2077 1.58366 18.2077H17.417C17.627 18.2077 17.8283 18.1243 17.9768 17.9758C18.1253 17.8273 18.2087 17.626 18.2087 17.416C18.2078 16.5417 17.9656 15.6846 17.5089 14.9391C17.0521 14.1937 16.3985 13.5887 15.6199 13.1909ZM5.54199 10.291C5.77686 10.291 6.00645 10.3607 6.20173 10.4911C6.39702 10.6216 6.54922 10.8071 6.6391 11.0241C6.72898 11.2411 6.75249 11.4798 6.70667 11.7102C6.66085 11.9405 6.54776 12.1521 6.38168 12.3182C6.21561 12.4843 6.00401 12.5974 5.77366 12.6432C5.54331 12.689 5.30454 12.6655 5.08756 12.5756C4.87057 12.4857 4.68511 12.3335 4.55462 12.1383C4.42414 11.943 4.35449 11.7134 4.35449 11.4785C4.35449 11.1636 4.4796 10.8615 4.7023 10.6388C4.925 10.4161 5.22705 10.291 5.54199 10.291ZM2.47508 16.6243C2.65003 15.9439 3.04631 15.3409 3.60154 14.9104C4.15676 14.4799 4.8394 14.2462 5.54199 14.2462C6.24458 14.2462 6.92722 14.4799 7.48245 14.9104C8.03767 15.3409 8.43395 15.9439 8.60891 16.6243H2.47508ZM13.4587 10.291C13.6935 10.291 13.9231 10.3607 14.1184 10.4911C14.3137 10.6216 14.4659 10.8071 14.5558 11.0241C14.6456 11.2411 14.6692 11.4798 14.6233 11.7102C14.5775 11.9405 14.4644 12.1521 14.2983 12.3182C14.1323 12.4843 13.9207 12.5974 13.6903 12.6432C13.46 12.689 13.2212 12.6655 13.0042 12.5756C12.7872 12.4857 12.6018 12.3335 12.4713 12.1383C12.3408 11.943 12.2712 11.7134 12.2712 11.4785C12.2712 11.1636 12.3963 10.8615 12.619 10.6388C12.8417 10.4161 13.1437 10.291 13.4587 10.291ZM10.3925 16.6243C10.568 15.9446 10.9644 15.3424 11.5195 14.9125C12.0745 14.4826 12.7566 14.2493 13.4587 14.2493C14.1607 14.2493 14.8428 14.4826 15.3979 14.9125C15.9529 15.3424 16.3493 15.9446 16.5248 16.6243H10.3925ZM5.70033 6.64935C5.57435 6.81732 5.52026 7.02845 5.54995 7.23631C5.57964 7.44416 5.69069 7.6317 5.85866 7.75768C6.02663 7.88366 6.23776 7.93775 6.44562 7.90806C6.65347 7.87837 6.84101 7.76732 6.96699 7.59935C7.26196 7.20606 7.64444 6.88685 8.08415 6.667C8.52386 6.44714 9.00872 6.33268 9.50033 6.33268C9.99193 6.33268 10.4768 6.44714 10.9165 6.667C11.3562 6.88685 11.7387 7.20606 12.0337 7.59935C12.096 7.68252 12.1742 7.75259 12.2636 7.80556C12.3531 7.85853 12.4521 7.89336 12.555 7.90806C12.658 7.92276 12.7628 7.91705 12.8635 7.89125C12.9642 7.86545 13.0588 7.82006 13.142 7.75768C13.2252 7.6953 13.2952 7.61716 13.3482 7.5277C13.4012 7.43824 13.436 7.33923 13.4507 7.23631C13.4654 7.13339 13.4597 7.02858 13.4339 6.92787C13.4081 6.82716 13.3627 6.73252 13.3003 6.64935C12.8673 6.07135 12.3082 5.5997 11.6655 5.27027C12.0552 4.7859 12.2688 4.1835 12.2712 3.56185C12.2712 2.82698 11.9792 2.12221 11.4596 1.60257C10.94 1.08294 10.2352 0.791016 9.50033 0.791016C8.76545 0.791016 8.06068 1.08294 7.54105 1.60257C7.02142 2.12221 6.72949 2.82698 6.72949 3.56185C6.73207 4.18323 6.94561 4.78532 7.33512 5.26947C6.69226 5.599 6.13312 6.07095 5.70033 6.64935ZM9.50033 2.37435C9.73519 2.37435 9.96478 2.44399 10.1601 2.57448C10.3553 2.70496 10.5076 2.89042 10.5974 3.10741C10.6873 3.3244 10.7108 3.56317 10.665 3.79352C10.6192 4.02387 10.5061 4.23546 10.34 4.40154C10.1739 4.56761 9.96235 4.68071 9.732 4.72653C9.50164 4.77235 9.26288 4.74883 9.04589 4.65896C8.8289 4.56908 8.64344 4.41687 8.51295 4.22159C8.38247 4.02631 8.31283 3.79671 8.31283 3.56185C8.31283 3.2469 8.43794 2.94486 8.66064 2.72216C8.88334 2.49946 9.18538 2.37435 9.50033 2.37435Z" fill="white"/>
</g>
<defs>
<clipPath id="clip0_730_765">
<rect width="19" height="19" fill="white"/>
</clipPath>
</defs>
</svg>
