<svg width="19" height="19" viewBox="0 0 19 19" fill="none" xmlns="http://www.w3.org/2000/svg">
<path d="M2.37467 8.70898H7.91634C8.1263 8.70898 8.32767 8.62558 8.47613 8.47711C8.6246 8.32864 8.70801 8.12728 8.70801 7.91732V2.37565C8.70801 2.16569 8.6246 1.96432 8.47613 1.81586C8.32767 1.66739 8.1263 1.58398 7.91634 1.58398H2.37467C2.16471 1.58398 1.96335 1.66739 1.81488 1.81586C1.66642 1.96432 1.58301 2.16569 1.58301 2.37565V7.91732C1.58301 8.12728 1.66642 8.32864 1.81488 8.47711C1.96335 8.62558 2.16471 8.70898 2.37467 8.70898ZM3.16634 3.16732H7.12467V7.12565H3.16634V3.16732ZM17.4163 2.37565C17.4163 2.16569 17.3329 1.96432 17.1845 1.81586C17.036 1.66739 16.8346 1.58398 16.6247 1.58398H11.083C10.873 1.58398 10.6717 1.66739 10.5232 1.81586C10.3747 1.96432 10.2913 2.16569 10.2913 2.37565V7.91732C10.2913 8.12728 10.3747 8.32864 10.5232 8.47711C10.6717 8.62558 10.873 8.70898 11.083 8.70898H16.6247C16.8346 8.70898 17.036 8.62558 17.1845 8.47711C17.3329 8.32864 17.4163 8.12728 17.4163 7.91732V2.37565ZM15.833 7.12565H11.8747V3.16732H15.833V7.12565ZM1.58301 16.6257C1.58301 16.8356 1.66642 17.037 1.81488 17.1854C1.96335 17.3339 2.16471 17.4173 2.37467 17.4173H7.91634C8.1263 17.4173 8.32767 17.3339 8.47613 17.1854C8.6246 17.037 8.70801 16.8356 8.70801 16.6257V11.084C8.70801 10.874 8.6246 10.6727 8.47613 10.5242C8.32767 10.3757 8.1263 10.2923 7.91634 10.2923H2.37467C2.16471 10.2923 1.96335 10.3757 1.81488 10.5242C1.66642 10.6727 1.58301 10.874 1.58301 11.084V16.6257ZM3.16634 11.8757H7.12467V15.834H3.16634V11.8757ZM17.4163 16.6257V11.084C17.4163 10.874 17.3329 10.6727 17.1845 10.5242C17.036 10.3757 16.8346 10.2923 16.6247 10.2923H11.083C10.873 10.2923 10.6717 10.3757 10.5232 10.5242C10.3747 10.6727 10.2913 10.874 10.2913 11.084V16.6257C10.2913 16.8356 10.3747 17.037 10.5232 17.1854C10.6717 17.3339 10.873 17.4173 11.083 17.4173H16.6247C16.8346 17.4173 17.036 17.3339 17.1845 17.1854C17.3329 17.037 17.4163 16.8356 17.4163 16.6257ZM15.833 15.834H11.8747V11.8757H15.833V15.834Z" fill="white"/>
</svg>
