<svg width="19" height="19" viewBox="0 0 19 19" fill="none" xmlns="http://www.w3.org/2000/svg">
<g clip-path="url(#clip0_730_769)">
<path d="M16.5691 1.28818C16.5103 1.1413 16.4087 1.01543 16.2776 0.926813C16.1465 0.838195 15.9919 0.790894 15.8337 0.791016H3.16699C3.00876 0.790894 2.85411 0.838195 2.72302 0.926813C2.59193 1.01543 2.4904 1.1413 2.43153 1.28818L0.848201 5.24652C0.811099 5.34027 0.79203 5.44019 0.791992 5.54102V17.416C0.791992 17.626 0.8754 17.8273 1.02387 17.9758C1.17233 18.1243 1.3737 18.2077 1.58366 18.2077H17.417C17.627 18.2077 17.8283 18.1243 17.9768 17.9758C18.1253 17.8273 18.2087 17.626 18.2087 17.416V5.54102C18.2086 5.44019 18.1896 5.34027 18.1525 5.24652L16.5691 1.28818ZM3.70295 2.37435H15.2977L16.2477 4.74935H2.75295L3.70295 2.37435ZM2.37533 16.6243V6.33268H16.6253V16.6243H2.37533ZM8.70866 14.2493C8.70866 14.4593 8.62525 14.6607 8.47678 14.8091C8.32832 14.9576 8.12696 15.041 7.91699 15.041H4.75033C4.54036 15.041 4.339 14.9576 4.19053 14.8091C4.04207 14.6607 3.95866 14.4593 3.95866 14.2493C3.95866 14.0394 4.04207 13.838 4.19053 13.6896C4.339 13.5411 4.54036 13.4577 4.75033 13.4577H7.91699C8.12696 13.4577 8.32832 13.5411 8.47678 13.6896C8.62525 13.838 8.70866 14.0394 8.70866 14.2493Z" fill="white"/>
</g>
<defs>
<clipPath id="clip0_730_769">
<rect width="19" height="19" fill="white"/>
</clipPath>
</defs>
</svg>
