<svg width="18" height="18" viewBox="0 0 18 18" fill="none" xmlns="http://www.w3.org/2000/svg">
<path d="M14.625 2.8125C14.625 2.36495 14.8028 1.93572 15.1193 1.61926C15.4357 1.30279 15.8649 1.125 16.3125 1.125C16.7601 1.125 17.1893 1.30279 17.5057 1.61926C17.8222 1.93572 18 2.36495 18 2.8125V15.1875C18 15.6351 17.8222 16.0643 17.5057 16.3807C17.1893 16.6972 16.7601 16.875 16.3125 16.875C15.8649 16.875 15.4357 16.6972 15.1193 16.3807C14.8028 16.0643 14.625 15.6351 14.625 15.1875V2.8125ZM13.5 3.627C11.1746 4.69575 8.39363 5.29313 5.625 5.49V12.5066C6.03364 12.5297 6.44174 12.5616 6.849 12.6022C9.15862 12.8317 11.3918 13.3538 13.5 14.3573V3.627ZM4.5 12.4481V5.55075C3.735 5.58112 2.92613 5.59912 2.241 5.61037C1.64513 5.61863 1.07635 5.86062 0.657183 6.2842C0.238016 6.70779 0.00200788 7.27908 0 7.875L0 10.125C0 11.3693 1.008 12.3705 2.24325 12.3851C2.42926 12.3874 2.61526 12.3904 2.80125 12.3941C3.36769 12.4054 3.93398 12.4234 4.5 12.4481ZM6.06375 13.6642C6.38437 13.6879 6.70387 13.7171 7.02 13.752L7.30463 15.6532C7.3356 15.816 7.33026 15.9835 7.289 16.1439C7.24774 16.3043 7.17157 16.4536 7.06593 16.5812C6.96029 16.7087 6.82779 16.8114 6.67788 16.8818C6.52798 16.9523 6.36438 16.9887 6.19875 16.9886H5.58225C5.36357 16.9886 5.14964 16.9249 4.96663 16.8052C4.78361 16.6855 4.63944 16.5151 4.55175 16.3147L3.0735 13.5248C3.70828 13.5406 4.34283 13.5646 4.977 13.5968C5.34487 13.6159 5.70825 13.6384 6.06375 13.6642Z" fill="white"/>
</svg>
