<svg width="19" height="19" viewBox="0 0 19 19" fill="none" xmlns="http://www.w3.org/2000/svg">
<g clip-path="url(#clip0_730_763)">
<path d="M18.2087 14.7774C18.2089 15.483 17.9914 16.1715 17.5859 16.749C17.1805 17.3265 16.6067 17.7649 15.943 18.0043C15.2792 18.2438 14.5578 18.2727 13.877 18.0871C13.1962 17.9015 12.5893 17.5104 12.139 16.9671C11.8174 17.3553 11.4143 17.6677 10.9582 17.8821C10.5021 18.0966 10.0043 18.2077 9.50033 18.2077C8.99634 18.2077 8.49856 18.0966 8.04246 17.8821C7.58637 17.6677 7.1832 17.3553 6.8617 16.9671C6.41136 17.5104 5.80441 17.9015 5.12364 18.0871C4.44287 18.2727 3.72141 18.2438 3.05766 18.0043C2.39391 17.7649 1.82018 17.3265 1.41472 16.749C1.00925 16.1715 0.791793 15.483 0.791992 14.7774C0.791992 14.5674 0.8754 14.3661 1.02387 14.2176C1.17233 14.0691 1.3737 13.9857 1.58366 13.9857C1.79362 13.9857 1.99499 14.0691 2.14345 14.2176C2.29192 14.3661 2.37533 14.5674 2.37533 14.7774C2.38533 15.2607 2.58436 15.7209 2.92972 16.0592C3.27507 16.3974 3.73925 16.5869 4.22268 16.5869C4.70611 16.5869 5.17029 16.3974 5.51564 16.0592C5.861 15.7209 6.06003 15.2607 6.07003 14.7774C6.07003 14.5674 6.15344 14.3661 6.30191 14.2176C6.45037 14.0691 6.65174 13.9857 6.8617 13.9857C7.07166 13.9857 7.27303 14.0691 7.42149 14.2176C7.56996 14.3661 7.65337 14.5674 7.65337 14.7774C7.65337 15.2672 7.84796 15.737 8.19433 16.0834C8.5407 16.4298 9.01048 16.6243 9.50033 16.6243C9.99017 16.6243 10.4599 16.4298 10.8063 16.0834C11.1527 15.737 11.3473 15.2672 11.3473 14.7774C11.3473 14.6734 11.3678 14.5705 11.4075 14.4744C11.4473 14.3784 11.5056 14.2911 11.5792 14.2176C11.6527 14.1441 11.7399 14.0858 11.836 14.046C11.932 14.0062 12.035 13.9857 12.139 13.9857C12.2429 13.9857 12.3459 14.0062 12.4419 14.046C12.538 14.0858 12.6252 14.1441 12.6987 14.2176C12.7723 14.2911 12.8306 14.3784 12.8704 14.4744C12.9101 14.5705 12.9306 14.6734 12.9306 14.7774C12.9406 15.2607 13.1396 15.7209 13.485 16.0592C13.8304 16.3974 14.2945 16.5869 14.778 16.5869C15.2614 16.5869 15.7256 16.3974 16.0709 16.0592C16.4163 15.7209 16.6153 15.2607 16.6253 14.7774C16.6253 14.5674 16.7087 14.3661 16.8572 14.2176C17.0057 14.0691 17.207 13.9857 17.417 13.9857C17.627 13.9857 17.8283 14.0691 17.9768 14.2176C18.1253 14.3661 18.2087 14.5674 18.2087 14.7774ZM13.4745 13.2993L14.1537 9.90072L9.50033 7.24468L4.84691 9.90389L5.52616 13.2993C5.55946 13.5019 5.51281 13.7094 5.39604 13.8782C5.27926 14.047 5.1015 14.1638 4.90024 14.2041C4.69898 14.2443 4.48995 14.2049 4.31724 14.094C4.14454 13.9831 4.02165 13.8094 3.97449 13.6097L3.18283 9.65135C3.1507 9.48931 3.17006 9.32129 3.2382 9.1708C3.30634 9.02032 3.41985 8.89493 3.56283 8.81218L4.75033 8.13531V4.74935C4.75033 4.32942 4.91714 3.9267 5.21407 3.62976C5.51101 3.33283 5.91373 3.16602 6.33366 3.16602H8.70866V1.58268C8.70866 1.37272 8.79207 1.17136 8.94053 1.02289C9.089 0.874423 9.29036 0.791016 9.50033 0.791016C9.71029 0.791016 9.91165 0.874423 10.0601 1.02289C10.2086 1.17136 10.292 1.37272 10.292 1.58268V3.16602H12.667C13.0869 3.16602 13.4896 3.33283 13.7866 3.62976C14.0835 3.9267 14.2503 4.32942 14.2503 4.74935V8.13531L15.4378 8.81218C15.582 8.89529 15.6963 9.02172 15.7645 9.1735C15.8327 9.32528 15.8514 9.4947 15.8178 9.65768L15.0262 13.616C14.9897 13.7948 14.8925 13.9555 14.7511 14.071C14.6097 14.1864 14.4328 14.2494 14.2503 14.2493C14.1971 14.2497 14.1441 14.2444 14.092 14.2335C13.9901 14.2127 13.8933 14.1721 13.8071 14.1139C13.7209 14.0557 13.6471 13.9811 13.5897 13.8944C13.5324 13.8076 13.4927 13.7104 13.4729 13.6083C13.4531 13.5062 13.4537 13.4012 13.4745 13.2993ZM12.667 4.74935H6.33366V7.23043L9.10449 5.6471C9.22408 5.57879 9.35943 5.54285 9.49716 5.54285C9.63489 5.54285 9.77023 5.57879 9.88982 5.6471L12.6607 7.23043L12.667 4.74935Z" fill="white"/>
</g>
<defs>
<clipPath id="clip0_730_763">
<rect width="19" height="19" fill="white"/>
</clipPath>
</defs>
</svg>
