<svg width="20" height="20" viewBox="0 0 20 20" fill="none" xmlns="http://www.w3.org/2000/svg">
<path d="M11.875 15.625C11.8748 15.9687 11.7802 16.3057 11.6014 16.5993C11.4226 16.8929 11.1666 17.1316 10.8613 17.2895C10.556 17.4474 10.2132 17.5183 9.87028 17.4945C9.5274 17.4707 9.19765 17.3532 8.91707 17.1547C8.63648 16.9562 8.41587 16.6843 8.27932 16.3689C8.14277 16.0535 8.09555 15.7066 8.14281 15.3662C8.19008 15.0257 8.33001 14.7048 8.54732 14.4385C8.76463 14.1723 9.05095 13.9708 9.375 13.8562V8.125C9.375 7.95924 9.44085 7.80027 9.55806 7.68306C9.67527 7.56585 9.83424 7.5 10 7.5C10.1658 7.5 10.3247 7.56585 10.4419 7.68306C10.5592 7.80027 10.625 7.95924 10.625 8.125V13.8562C10.9907 13.9856 11.3073 14.2251 11.5312 14.5419C11.7551 14.8587 11.8752 15.2371 11.875 15.625V15.625Z" fill="#F35650"/>
<path d="M6.875 3.125C6.875 2.2962 7.20424 1.50134 7.79029 0.915291C8.37634 0.32924 9.1712 0 10 0C10.8288 0 11.6237 0.32924 12.2097 0.915291C12.7958 1.50134 13.125 2.2962 13.125 3.125V12.5625C13.7279 13.1779 14.1357 13.9575 14.2973 14.8037C14.4589 15.6499 14.3671 16.525 14.0334 17.3192C13.6996 18.1134 13.1389 18.7914 12.4213 19.2682C11.7038 19.745 10.8615 19.9994 10 19.9994C9.13851 19.9994 8.29619 19.745 7.57867 19.2682C6.86115 18.7914 6.30036 18.1134 5.96662 17.3192C5.63289 16.525 5.54106 15.6499 5.70266 14.8037C5.86426 13.9575 6.27208 13.1779 6.875 12.5625V3.125ZM10 1.25C9.50272 1.25 9.02581 1.44754 8.67418 1.79917C8.32255 2.15081 8.125 2.62772 8.125 3.125V13.1088L7.91625 13.2963C7.44447 13.7182 7.11191 14.2734 6.96259 14.8884C6.81327 15.5035 6.85423 16.1494 7.08004 16.7406C7.30585 17.3319 7.70587 17.8406 8.22717 18.1996C8.74847 18.5585 9.36646 18.7507 9.99938 18.7507C10.6323 18.7507 11.2503 18.5585 11.7716 18.1996C12.2929 17.8406 12.6929 17.3319 12.9187 16.7406C13.1445 16.1494 13.1855 15.5035 13.0362 14.8884C12.8868 14.2734 12.5543 13.7182 12.0825 13.2963L11.875 13.1088V3.125C11.875 2.62772 11.6775 2.15081 11.3258 1.79917C10.9742 1.44754 10.4973 1.25 10 1.25Z" fill="#F35650"/>
</svg>
