<svg width="24" height="24" viewBox="0 0 24 24" fill="none" xmlns="http://www.w3.org/2000/svg">
<path d="M12 1C9.82441 1 7.69767 1.64514 5.88873 2.85383C4.07979 4.06253 2.66989 5.78049 1.83733 7.79048C1.00477 9.80047 0.786929 12.0122 1.21137 14.146C1.6358 16.2798 2.68345 18.2398 4.22183 19.7782C5.76021 21.3166 7.72022 22.3642 9.85401 22.7886C11.9878 23.2131 14.1995 22.9952 16.2095 22.1627C18.2195 21.3301 19.9375 19.9202 21.1462 18.1113C22.3549 16.3023 23 14.1756 23 12C22.9966 9.08367 21.8365 6.28778 19.7744 4.22563C17.7122 2.16347 14.9163 1.00344 12 1ZM12 21C10.1384 20.9567 8.32925 20.3753 6.791 19.326C7.44749 18.5947 8.2506 18.0098 9.14808 17.6095C10.0455 17.2091 11.0173 17.0021 12 17.0021C12.9827 17.0021 13.9545 17.2091 14.8519 17.6095C15.7494 18.0098 16.5525 18.5947 17.209 19.326C15.6836 20.4012 13.8663 20.9853 12 21ZM18.694 17.994C17.8517 17.052 16.8201 16.2985 15.6666 15.7825C14.513 15.2666 13.2636 14.9999 12 14.9999C10.7364 14.9999 9.48696 15.2666 8.33345 15.7825C7.17995 16.2985 6.14832 17.052 5.30601 17.994C4.14348 16.7004 3.38066 15.0977 3.10981 13.3798C2.83896 11.6618 3.07168 9.90213 3.77983 8.31364C4.48797 6.72514 5.64121 5.37585 7.10004 4.42896C8.55887 3.48208 10.2608 2.97816 12 2.97816C13.7392 2.97816 15.4411 3.48208 16.9 4.42896C18.3588 5.37585 19.512 6.72514 20.2202 8.31364C20.9283 9.90213 21.161 11.6618 20.8902 13.3798C20.6193 15.0977 19.8565 16.7004 18.694 17.994ZM12 6C11.2089 6 10.4355 6.2346 9.77772 6.67412C9.11993 7.11365 8.60724 7.73836 8.30449 8.46927C8.00174 9.20017 7.92252 10.0044 8.07686 10.7804C8.2312 11.5563 8.61217 12.269 9.17158 12.8284C9.73099 13.3878 10.4437 13.7688 11.2196 13.9231C11.9956 14.0775 12.7998 13.9983 13.5307 13.6955C14.2616 13.3928 14.8864 12.8801 15.3259 12.2223C15.7654 11.5645 16 10.7911 16 10C16 8.93913 15.5786 7.92172 14.8284 7.17157C14.0783 6.42143 13.0609 6 12 6ZM12 12C11.6044 12 11.2178 11.8827 10.8889 11.6629C10.56 11.4432 10.3036 11.1308 10.1522 10.7654C10.0009 10.3999 9.96126 9.99778 10.0384 9.60982C10.1156 9.22186 10.3061 8.86549 10.5858 8.58579C10.8655 8.30608 11.2219 8.1156 11.6098 8.03843C11.9978 7.96126 12.3999 8.00087 12.7654 8.15224C13.1308 8.30362 13.4432 8.55996 13.6629 8.88886C13.8827 9.21776 14 9.60444 14 10C14 10.5304 13.7893 11.0391 13.4142 11.4142C13.0391 11.7893 12.5304 12 12 12Z" fill="black"/>
</svg>
