<svg width="20" height="20" viewBox="0 0 20 20" fill="none" xmlns="http://www.w3.org/2000/svg">
<path fill-rule="evenodd" clip-rule="evenodd" d="M10.204 0.906408C9.95073 0.578609 9.47972 0.518151 9.15192 0.771372C8.33067 1.40578 6.69232 2.77053 5.25589 4.5781C3.83093 6.37124 2.52738 8.69695 2.54071 11.2388C2.54183 15.4158 5.94061 18.8127 10.1251 18.8127C14.3115 18.8127 17.7095 15.4051 17.7095 11.2283C17.7095 10.8141 17.3737 10.4783 16.9595 10.4783C16.5453 10.4783 16.2095 10.8141 16.2095 11.2283C16.2095 14.5779 13.4818 17.3127 10.1251 17.3127C6.76714 17.3127 4.04071 14.5851 4.04071 11.2368V11.2326H4.0407C4.02944 9.19378 5.08808 7.20027 6.43024 5.51132C7.76132 3.83631 9.29548 2.55591 10.0689 1.95844C10.3967 1.70522 10.4572 1.23421 10.204 0.906408Z" fill="#4A8EFF"/>
<path fill-rule="evenodd" clip-rule="evenodd" d="M11.0963 0.769984C10.5219 0.3259 9.72301 0.326837 9.14963 0.772795C8.82267 1.0271 8.76377 1.4983 9.01807 1.82527C9.27237 2.15223 9.74358 2.21113 10.0705 1.95682C10.1035 1.93122 10.1461 1.93122 10.179 1.95682L10.1853 1.96171L10.1853 1.96168C11.3329 2.83483 14.0273 5.09065 15.3887 7.92486C15.5681 8.29823 16.0161 8.45552 16.3895 8.27618C16.7629 8.09683 16.9202 7.64876 16.7408 7.27539C15.2177 4.1045 12.2792 1.67035 11.0963 0.769984Z" fill="#4A8EFF"/>
</svg>
