<svg width="current" height="current" viewBox="0 0 100 100" fill="none" xmlns="http://www.w3.org/2000/svg">
<rect width="current" height="current" fill="white"/>
<path fill-rule="evenodd" clip-rule="evenodd" d="M50.21 29.3301C46.214 29.3281 42.3071 30.5114 38.9837 32.7302C35.6603 34.9491 33.0697 38.1038 31.5396 41.7953C30.0094 45.4867 29.6086 49.5491 30.3877 53.4685C31.1668 57.3878 33.0908 60.988 35.9165 63.8136C38.7421 66.6393 42.3423 68.5633 46.2616 69.3424C50.181 70.1215 54.2434 69.7207 57.9348 68.1905C61.6263 66.6604 64.781 64.0698 66.9999 60.7464C69.2187 57.423 70.402 53.5161 70.4 49.5201C70.3921 44.1678 68.2624 39.037 64.4777 35.2524C60.6931 31.4677 55.5623 29.338 50.21 29.3301ZM50.21 63.9501C47.3556 63.9521 44.5647 63.1074 42.1904 61.523C39.8161 59.9387 37.965 57.6857 36.8713 55.0491C35.7776 52.4126 35.4904 49.5109 36.0461 46.7111C36.6017 43.9113 37.9752 41.3391 39.9929 39.3201C42.0106 37.301 44.5818 35.9257 47.3812 35.3681C50.1806 34.8105 53.0825 35.0957 55.7198 36.1875C58.3571 37.2794 60.6114 39.1289 62.1974 41.5022C63.7835 43.8754 64.63 46.6657 64.63 49.5201C64.6366 51.4184 64.2685 53.2994 63.5469 55.0552C62.8253 56.8111 61.7644 58.4073 60.4248 59.7524C59.0853 61.0975 57.4935 62.1651 55.7406 62.894C53.9878 63.6229 52.1084 63.9988 50.21 64.0001V63.9501Z" fill="#ED6C3A"/>
<path fill-rule="evenodd" clip-rule="evenodd" d="M50.2101 12C49.831 12 49.4557 12.0748 49.1057 12.2202C48.7556 12.3655 48.4376 12.5786 48.1701 12.8471C47.9025 13.1156 47.6906 13.4342 47.5464 13.7848C47.4023 14.1354 47.3288 14.511 47.3301 14.89V20.66C47.3734 21.3958 47.6963 22.0872 48.2325 22.5928C48.7688 23.0985 49.478 23.3801 50.2151 23.3801C50.9522 23.3801 51.6614 23.0985 52.1976 22.5928C52.7339 22.0872 53.0568 21.3958 53.1001 20.66V14.91C53.1027 14.5288 53.0299 14.1508 52.8859 13.7979C52.7418 13.445 52.5294 13.124 52.2607 12.8535C51.9921 12.583 51.6726 12.3684 51.3207 12.2219C50.9687 12.0754 50.5913 12 50.2101 12Z" fill="#ED6C3A"/>
<path fill-rule="evenodd" clip-rule="evenodd" d="M50.2101 75.48C49.831 75.48 49.4557 75.5548 49.1057 75.7002C48.7556 75.8455 48.4376 76.0585 48.1701 76.327C47.9025 76.5955 47.6906 76.9142 47.5464 77.2648C47.4023 77.6154 47.3288 77.9909 47.3301 78.37V84.14C47.3734 84.8758 47.6963 85.5672 48.2325 86.0728C48.7688 86.5784 49.478 86.8601 50.2151 86.8601C50.9522 86.8601 51.6614 86.5784 52.1976 86.0728C52.7339 85.5672 53.0568 84.8758 53.1001 84.14V78.37C53.1001 77.6035 52.7956 76.8684 52.2536 76.3264C51.7117 75.7845 50.9766 75.48 50.2101 75.48Z" fill="#ED6C3A"/>
<path fill-rule="evenodd" clip-rule="evenodd" d="M76.7201 23.0001C76.1788 22.4633 75.4474 22.1621 74.6851 22.1621C73.9228 22.1621 73.1914 22.4633 72.6501 23.0001L68.5701 27.0801C68.029 27.6211 67.7251 28.3549 67.7251 29.1201C67.7251 29.8852 68.029 30.619 68.5701 31.1601C69.1111 31.7011 69.8449 32.0051 70.6101 32.0051C71.3752 32.0051 72.1091 31.7011 72.6501 31.1601L76.7201 27.0801C76.9886 26.8125 77.2016 26.4946 77.347 26.1445C77.4923 25.7944 77.5672 25.4191 77.5672 25.0401C77.5672 24.661 77.4923 24.2857 77.347 23.9356C77.2016 23.5856 76.9886 23.2676 76.7201 23.0001Z" fill="#ED6C3A"/>
<path fill-rule="evenodd" clip-rule="evenodd" d="M31.8601 67.88C31.3184 67.3402 30.5849 67.0371 29.8201 67.0371C29.0554 67.0371 28.3218 67.3402 27.7801 67.88L23.7001 72C23.2768 72.5584 23.0716 73.252 23.123 73.9508C23.1743 74.6497 23.4787 75.3058 23.979 75.7963C24.4794 76.2869 25.1414 76.5782 25.8411 76.6157C26.5408 76.6532 27.2302 76.4343 27.7801 76L31.8601 72C32.1322 71.7304 32.3482 71.4095 32.4956 71.056C32.643 70.7024 32.7189 70.3231 32.7189 69.94C32.7189 69.557 32.643 69.1777 32.4956 68.8241C32.3482 68.4705 32.1322 68.1497 31.8601 67.88Z" fill="#ED6C3A"/>
<path fill-rule="evenodd" clip-rule="evenodd" d="M12.71 49.5202C12.71 50.2866 13.0144 51.0217 13.5564 51.5637C14.0984 52.1057 14.8335 52.4102 15.6 52.4102H21.37C22.1057 52.3668 22.7972 52.044 23.3028 51.5077C23.8084 50.9714 24.09 50.2622 24.09 49.5252C24.09 48.7881 23.8084 48.0789 23.3028 47.5426C22.7972 47.0063 22.1057 46.6835 21.37 46.6402H15.6C15.2209 46.6388 14.8453 46.7124 14.4948 46.8565C14.1442 47.0006 13.8255 47.2126 13.557 47.4801C13.2885 47.7477 13.0755 48.0656 12.9301 48.4157C12.7848 48.7658 12.71 49.1411 12.71 49.5202Z" fill="#ED6C3A"/>
<path fill-rule="evenodd" clip-rule="evenodd" d="M76.1699 49.5201C76.1699 50.2866 76.4744 51.0217 77.0164 51.5637C77.5584 52.1057 78.2934 52.4101 79.0599 52.4101H84.8299C85.5657 52.3668 86.2571 52.044 86.7628 51.5077C87.2684 50.9714 87.55 50.2622 87.55 49.5251C87.55 48.7881 87.2684 48.0789 86.7628 47.5426C86.2571 47.0063 85.5657 46.6835 84.8299 46.6401H79.0599C78.2952 46.6401 77.5616 46.9432 77.0199 47.4831C76.4782 48.0229 76.1726 48.7554 76.1699 49.5201Z" fill="#ED6C3A"/>
<path fill-rule="evenodd" clip-rule="evenodd" d="M23.6899 22.9999C23.1525 23.5429 22.8511 24.276 22.8511 25.0399C22.8511 25.8038 23.1525 26.5369 23.6899 27.0799L27.7699 31.1499C28.0372 31.4178 28.3545 31.6304 28.704 31.7757C29.0534 31.9209 29.428 31.9959 29.8064 31.9964C30.1848 31.9968 30.5596 31.9228 30.9093 31.7784C31.2591 31.634 31.577 31.4221 31.8449 31.1549C32.1128 30.8877 32.3254 30.5703 32.4707 30.2209C32.6159 29.8714 32.6909 29.4968 32.6914 29.1184C32.6918 28.74 32.6178 28.3653 32.4734 28.0155C32.329 27.6657 32.1172 27.3478 31.8499 27.0799L27.7699 22.9999C27.5023 22.7314 27.1844 22.5184 26.8343 22.373C26.4843 22.2277 26.109 22.1528 25.7299 22.1528C25.3509 22.1528 24.9755 22.2277 24.6255 22.373C24.2754 22.5184 23.9575 22.7314 23.6899 22.9999Z" fill="#ED6C3A"/>
<path fill-rule="evenodd" clip-rule="evenodd" d="M68.57 67.88C68.0302 68.4217 67.7271 69.1553 67.7271 69.92C67.7271 70.6847 68.0302 71.4183 68.57 71.96L72.65 76C73.1999 76.4343 73.8893 76.6532 74.589 76.6157C75.2887 76.5782 75.9507 76.2869 76.4511 75.7963C76.9514 75.3058 77.2558 74.6496 77.3071 73.9508C77.3585 73.252 77.1533 72.5584 76.73 72L72.65 67.92C72.3851 67.6489 72.0692 67.4327 71.7206 67.2839C71.3719 67.1351 70.9973 67.0566 70.6183 67.0529C70.2392 67.0492 69.8632 67.1203 69.5117 67.2622C69.1602 67.4042 68.8402 67.6141 68.57 67.88Z" fill="#ED6C3A"/>
</svg>
